<svg width="20" height="19" viewBox="0 0 20 19" fill="none" xmlns="http://www.w3.org/2000/svg">
<path d="M19.624 4.188L10.906 18.071C10.7996 18.2395 10.6521 18.3782 10.4775 18.4741C10.3028 18.57 10.1066 18.62 9.90735 18.6194C9.70807 18.6188 9.51221 18.5677 9.33812 18.4707C9.16403 18.3737 9.01741 18.2341 8.91201 18.065L0.365006 4.183C0.125364 3.79364 -0.0010309 3.34519 6.33291e-06 2.888C0.0110622 2.21369 0.289095 1.5713 0.773127 1.1017C1.25716 0.632102 1.90768 0.373639 2.58201 0.382997H17.43C18.847 0.382997 20 1.5 20 2.883C20 3.341 19.87 3.794 19.623 4.188M2.46301 3.724L8.82301 13.53V2.735H3.12801C2.47001 2.735 2.17501 3.171 2.46401 3.724M11.176 13.53L17.536 3.724C17.829 3.171 17.529 2.735 16.871 2.735H11.176V13.53Z" fill="white"/>
</svg>
