<svg width="32" height="32" viewBox="0 0 32 32" fill="none" xmlns="http://www.w3.org/2000/svg">
<path d="M25.3333 22.6666V25.3333H9.33333V22.6666C9.33333 22.6666 9.33333 17.3333 17.3333 17.3333C25.3333 17.3333 25.3333 22.6666 25.3333 22.6666ZM21.3333 10.6666C21.3333 9.8755 21.0987 9.10214 20.6592 8.44435C20.2197 7.78655 19.595 7.27386 18.8641 6.97111C18.1332 6.66836 17.3289 6.58915 16.553 6.74349C15.777 6.89783 15.0643 7.27879 14.5049 7.8382C13.9455 8.39761 13.5645 9.11034 13.4102 9.88627C13.2559 10.6622 13.3351 11.4665 13.6378 12.1974C13.9406 12.9283 14.4533 13.553 15.1111 13.9925C15.7688 14.432 16.5422 14.6666 17.3333 14.6666C18.3942 14.6666 19.4116 14.2452 20.1618 13.4951C20.9119 12.7449 21.3333 11.7275 21.3333 10.6666ZM25.6 17.4133C26.3288 18.0857 26.9164 18.8965 27.3285 19.7985C27.7406 20.7005 27.9688 21.6755 28 22.6666V25.3333H32V22.6666C32 22.6666 32 18.0666 25.6 17.4133ZM24 6.66663C23.5971 6.66665 23.1968 6.72963 22.8133 6.85329C23.5934 7.97192 24.0116 9.30287 24.0116 10.6666C24.0116 12.0304 23.5934 13.3613 22.8133 14.48C23.1968 14.6036 23.5971 14.6666 24 14.6666C25.0609 14.6666 26.0783 14.2452 26.8284 13.4951C27.5786 12.7449 28 11.7275 28 10.6666C28 9.60576 27.5786 8.58835 26.8284 7.8382C26.0783 7.08805 25.0609 6.66663 24 6.66663ZM10.6667 13.3333H6.66667V9.33329H4V13.3333H0V16H4V20H6.66667V16H10.6667V13.3333Z" fill="white"/>
</svg>
